<?xml version="1.0" encoding="utf-8"?>
<!-- Generator: Adobe Illustrator 16.0.1, SVG Export Plug-In . SVG Version: 6.00 Build 0)  -->
<!DOCTYPE svg PUBLIC "-//W3C//DTD SVG 1.1//EN" "http://www.w3.org/Graphics/SVG/1.1/DTD/svg11.dtd">
<svg version="1.1" id="Layer_1" xmlns="http://www.w3.org/2000/svg" xmlns:xlink="http://www.w3.org/1999/xlink" x="0px" y="0px"
	 width="244.883px" height="232.629px" viewBox="-0.189 -2.674 244.883 232.629"
	 enable-background="new -0.189 -2.674 244.883 232.629" xml:space="preserve">
<g id="Mascot_1_">
	<path id="Under_shadow_1_" fill="#E9E9EB" d="M244.693,214.042c0,8.789-54.816,15.912-122.44,15.912
		c-67.623,0-122.443-7.123-122.443-15.912c0-8.785,54.82-15.91,122.443-15.91C189.877,198.132,244.693,205.257,244.693,214.042z"/>
	<path id="Outline_1_" fill="#384F0E" d="M158.76,222.324c-4.832,0-9.684-1.496-14.424-4.449
		c-3.141-1.154-20.91-8.855-28.915-37.707c-2.078-7.494-5.484-7.494-6.766-7.494c-8.152,0-21.51,12.676-31.262,21.932
		c-5.141,4.879-9.59,9.102-12.867,11.184c-1.712,1.301-17.576,13.074-30.447,13.074c-3.761,0-6.998-0.982-9.621-2.92
		c-6.147-4.545-9.676-11.322-9.682-18.596C14.77,188.5,19.657,180,28.541,173.412c2.467-1.832,5.496-3.836,8.702-5.957
		c18.291-12.105,43.341-28.682,36.544-55.464c-2.419-9.534-10.098-29.706-10.176-29.909l-0.043-0.12
		c-1.881-5.573-3.197-10.63-4.021-15.461c-1.023-6.692-3.287-29.746,10.162-47.812C78.349,7.08,91.691-0.062,109.363-2.539
		l0.324-0.03c1.744-0.07,3.475-0.105,5.141-0.105c44.327,0,50.116,24.616,52.586,35.127c0.248,1.056,0.463,1.967,0.666,2.624
		c3.381,10.963-1.314,42.744-1.861,46.332l-0.424,2.778h-0.211c-0.721,6.187-1.621,12.515-2.678,18.854
		c-4.93,29.595,4.803,36.55,13.387,42.683c1.537,1.1,2.99,2.139,4.373,3.291c2.438,2.029,8.115,5.195,14.689,8.863
		c17.465,9.746,41.385,23.09,44.615,36.812c1.33,5.65-0.121,11.682-3.977,16.549c-4.137,5.223-10.412,8.219-17.219,8.221
		c-0.002,0-0.002,0-0.004,0c-7.223-0.004-21.479-3.561-35.787-27.377c-14.555-24.219-22.279-25.445-23.68-25.445
		c-0.508,0-0.834,0.125-0.965,0.373c-0.119,0.221-0.08,0.459-0.045,0.512c4.613,1.293,18.404,13.535,22.545,26.131
		c2.42,7.354,1.447,14.139-2.811,19.621C177.658,213.726,170.383,222.324,158.76,222.324z M108.656,166.132
		c4.408,0,10.252,2.131,13.07,12.285c7.668,27.645,24.844,33.316,25.016,33.371l0.416,0.131l0.365,0.232
		c3.779,2.408,7.559,3.629,11.236,3.629c8.176,0,13.701-6.07,14.15-6.578c2.779-3.619,3.41-7.824,1.92-12.852
		c-3.268-11.045-15.705-21.635-18.301-22.537c-3.209-0.904-5.217-4.049-4.744-7.469c0.508-3.68,3.602-6.25,7.52-6.25
		c7.908,0,18.035,9.896,29.287,28.619c12.65,21.057,24.34,24.201,30.18,24.203c0.002,0,0.002,0,0.004,0
		c4.795,0,9.203-2.092,12.092-5.738c2.568-3.244,3.592-7.352,2.734-10.99c-2.568-10.912-25.957-23.963-41.434-32.598
		c-7.145-3.984-12.783-7.131-15.689-9.553c-1.197-0.996-2.553-1.965-3.988-2.992c-9.131-6.521-21.639-15.459-16.035-49.082
		c1.203-7.218,2.197-14.419,2.955-21.402l0.318-2.917h0.426c1.521-10.93,3.949-33.267,1.674-40.64
		c-0.27-0.87-0.506-1.883-0.783-3.055c-2.295-9.764-7.072-30.083-46.217-30.083c-1.527,0-3.113,0.031-4.717,0.094
		c-15.795,2.247-27.623,8.514-35.154,18.632c-11.935,16.033-9.869,36.86-8.952,42.862c0.755,4.417,1.981,9.132,3.741,14.354
		c0.558,1.463,7.913,20.84,10.383,30.572c7.938,31.282-20.475,50.086-39.276,62.528c-3.131,2.07-6.088,4.027-8.415,5.754
		c-7.176,5.324-11.125,11.957-11.12,18.678c0.004,5.256,2.5,9.992,7.029,13.34c1.494,1.104,3.369,1.641,5.732,1.641
		c9.235,0,22.32-8.527,26.583-11.814l0.267-0.184c2.727-1.699,7.213-5.957,11.961-10.465
		C84.031,179.289,97.894,166.132,108.656,166.132z"/>
	<path id="Body_1_" fill="#A4CA39" d="M236.785,195.441c-4.086-17.363-49.021-36.254-58.213-43.914
		c-9.189-7.662-25.018-12.256-18.891-49.025c1.264-7.585,2.24-14.775,2.98-21.586h0.322c0,0,5.229-34.312,1.969-44.875
		C162.5,28.086,161.076-1.363,109.818,0.7C58.785,7.855,60.811,53.125,62.771,65.951c0.891,5.222,2.139,10.447,3.896,14.965
		c0,0,7.799,20.454,10.29,30.27c8.682,34.212-30.639,53.105-46.468,64.853c-15.832,11.742-15.832,28.592-4.086,37.273
		s36.257-10.213,36.257-10.213c12.232-7.625,47.682-53.488,55.914-23.807c8.233,29.68,27.192,35.617,27.192,35.617
		c17.426,11.107,29.68-3.641,29.68-3.641c12.641-16.275-13.346-39.283-18-40.596c-7.469-2.104,2.107-23.934,28.342,19.727
		C212.02,234.056,240.873,212.802,236.785,195.441z"/>
	<radialGradient id="Light_on_body_2_" cx="157.0684" cy="20.3325" r="109.2921" gradientUnits="userSpaceOnUse">
		<stop  offset="0" style="stop-color:#EEE824"/>
		<stop  offset="1" style="stop-color:#EEE824;stop-opacity:0"/>
	</radialGradient>
	<path id="Light_on_body_1_" opacity="0.3" fill="url(#Light_on_body_2_)" d="M236.785,195.441
		c-4.086-17.363-49.021-36.254-58.213-43.914c-9.189-7.662-25.018-12.256-18.891-49.025c1.264-7.585,2.24-14.775,2.98-21.586h0.322
		c0,0,5.229-34.312,1.969-44.875C162.5,28.086,161.076-1.363,109.818,0.7C58.785,7.855,60.811,53.125,62.771,65.951
		c0.891,5.222,2.139,10.447,3.896,14.965c0,0,7.799,20.454,10.29,30.27c8.682,34.212-30.639,53.105-46.468,64.853
		c-15.832,11.742-15.832,28.592-4.086,37.273s36.257-10.213,36.257-10.213c12.232-7.625,47.682-53.488,55.914-23.807
		c8.233,29.68,27.192,35.617,27.192,35.617c17.426,11.107,29.68-3.641,29.68-3.641c12.641-16.275-13.346-39.283-18-40.596
		c-7.469-2.104,2.107-23.934,28.342,19.727C212.02,234.056,240.873,212.802,236.785,195.441z"/>
	<path id="smile_1_" fill="#002E21" d="M109.736,87.829c3.225,3.415,6.994,6.679,10.92,9.48c3.952,2.797,8.202,5.225,12.77,6.684
		c4.531,1.457,9.518,1.812,14.014-0.002c4.51-1.766,8.123-5.534,10.729-9.78c-2.176,4.47-5.42,8.716-10.109,11.132
		c-2.316,1.206-4.916,1.905-7.543,2.107c-2.631,0.211-5.277-0.042-7.838-0.579c-5.135-1.096-9.928-3.25-14.418-5.798
		c-4.5-2.598-8.67-5.516-12.693-9.004c-1.244-1.076-1.379-2.958-0.301-4.2c1.078-1.245,2.959-1.378,4.203-0.3
		c0.074,0.062,0.145,0.13,0.211,0.202L109.736,87.829z"/>
	<g id="Shadows_1_">
		<path id="Right_Leg_shadow_1_" fill="#89A43C" d="M235.445,204.474c-1.018,0.361-1.906,0.623-2.623,0.762
			c-0.023,0.008-2.586,0.682-6.697,0.682c-8.59,0-25.23-2.98-40.131-22.9c-0.52-0.838-12.877-20.523-25.246-20.523
			c-0.451,0-0.902,0.023-1.342,0.078c0,0-2.627,0.812-2.803,1.551c-0.016,0.057,0,0.107,0.016,0.156
			c3.707-2.482,13.428,0.246,29.084,26.305c21.916,36.469,45.656,27.639,50.496,13.621L235.445,204.474z"/>
		<path id="Middle_Leg_shadow_1_" fill="#89A43C" d="M145.766,214.91c6.295,4.01,11.91,4.639,16.52,3.818
			c-6.01-0.881-13.223-5.312-22.717-24.854c-10.631-21.887-22.02-25.486-29.983-24.42c3.973,0.375,7.154,3.23,8.988,9.838
			C126.807,208.972,145.766,214.91,145.766,214.91z"/>
		<path id="Left_Leg_shadow_and_body_shadow_1_" fill="#89A43C" d="M43.677,207c-11.498-4.488-11.81-15.266-9.936-21.986
			c4.385-15.725,56.719-40.783,51.764-85.079C82.976,77.328,56.65,29.07,85.251,8.941l0.002,0
			c-25.658,15.641-24.053,46.734-22.482,57.01c0.891,5.222,2.139,10.447,3.896,14.965c0,0,7.799,20.454,10.29,30.27
			c8.682,34.212-30.639,53.105-46.468,64.853c-15.832,11.742-15.832,28.592-4.086,37.273s36.257-10.213,36.257-10.213
			c7.806-4.865,25.064-25.297,38.672-31.738C86.839,174.96,55.174,211.486,43.677,207z"/>
		<path id="tie_shadow_1_" opacity="0.18" fill="#384F0E" d="M135.809,148.156l6.055-15.018c0.268-0.941-0.68-1.773-2.07-1.877
			l-17.278-0.463c-1.391-0.109-2.025,1.094-1.375,2.637l9.604,13.889c0.578,8.188,2.809,27.088,11.371,43.473l22.904,10.6
			l-0.199-11.695C164.82,189.701,138.105,172.501,135.809,148.156z"/>
	</g>
	<path id="tie_1_" fill="#00421C" d="M166.865,189.101l-1.846,12.295l-19.998-11.199c-8.238-16.383-10.385-35.285-10.941-43.471
		l-9.236-13.893c-0.625-1.541-0.018-2.744,1.322-2.637l16.621,0.465c1.336,0.102,2.246,0.934,1.99,1.877l-5.82,15.012
		C141.164,171.9,166.865,189.101,166.865,189.101z"/>
	<g id="eye_2_">
		<path fill="#F5EE6A" d="M158.129,58.293c0,8.693-4.33,15.737-9.672,15.737s-8.398-6.909-8.398-15.602
			c0-8.69,3.057-15.871,8.398-15.871S158.129,49.603,158.129,58.293z"/>
		<path fill="#3E6A27" d="M152.693,59.127c0,8.691,1.227,15.397-4.236,14.903c-5.318-0.479-10.508-6.909-10.508-15.602
			c0-8.69,5.166-15.871,10.508-15.871C150.848,42.557,152.693,50.437,152.693,59.127z"/>
		<path fill="#002E21" d="M156.16,58.428c0,8.616-3.605,15.602-8.053,15.602c-4.443,0-8.049-6.986-8.049-15.602
			s3.605-15.602,8.049-15.602C152.555,42.827,156.16,49.812,156.16,58.428z"/>
		<path fill="#F4FAED" d="M152.986,47.923c1.086,2.012,1.045,4.133-0.084,4.741c-1.131,0.609-2.922-0.527-4.006-2.537
			c-1.082-2.009-1.045-4.13,0.086-4.741C150.111,44.78,151.906,45.914,152.986,47.923z"/>
		<path fill="#B5CE2F" d="M142.787,66.487c0,0,2.938,8.853,7.619,5.508C155.086,68.65,148.217,75.412,142.787,66.487z"/>
	</g>
	<g id="eye_1_">
		<path fill="#F5EE6A" d="M136.727,56.461c0,9.248-4.607,16.74-10.291,16.74c-5.68,0-8.934-7.35-8.934-16.596
			c0-9.246,3.254-16.884,8.934-16.884C132.119,39.721,136.727,47.215,136.727,56.461z"/>
		<path fill="#3E6A27" d="M130.945,57.348c0,9.246,1.303,16.38-4.51,15.853c-5.657-0.509-11.178-7.348-11.178-16.596
			c0-9.246,5.498-16.884,11.178-16.884C128.98,39.721,130.945,48.102,130.945,57.348z"/>
		<ellipse fill="#002E21" cx="126.067" cy="56.604" rx="8.566" ry="16.596"/>
		
			<ellipse transform="matrix(0.8806 -0.4739 0.4739 0.8806 -6.6698 66.7344)" fill="#F4FAED" cx="129.08" cy="46.602" rx="2.471" ry="4.396"/>
		<path fill="#B5CE2F" d="M119.853,63.857c0,0,3.311,9.973,8.583,6.203C133.709,66.292,125.971,73.909,119.853,63.857z"/>
	</g>
</g>
</svg>
